<?xml version="1.0" standalone="no"?>
<!DOCTYPE svg PUBLIC "-//W3C//DTD SVG 20010904//EN"
 "http://www.w3.org/TR/2001/REC-SVG-20010904/DTD/svg10.dtd">
<svg version="1.0" xmlns="http://www.w3.org/2000/svg"
 width="558.000000pt" height="558.000000pt" viewBox="0 0 558.000000 558.000000"
 preserveAspectRatio="xMidYMid meet">
<metadata>
Created by potrace 1.14, written by Peter Selinger 2001-2017
</metadata>
<g transform="translate(0.000000,558.000000) scale(0.100000,-0.100000)"
fill="#000000" stroke="none">
<path d="M1492 3808 c-17 -40 -214 -505 -437 -1033 -224 -528 -409 -968 -412
-978 -5 -16 1 -18 63 -15 l68 3 131 305 131 305 519 0 518 0 143 -305 142
-305 146 -3 146 -3 -16 33 c-8 18 -228 490 -488 1048 l-472 1015 -76 3 -76 3
-30 -73z m284 -773 l232 -500 -450 -3 c-248 -1 -453 0 -456 3 -9 8 421 1006
431 1002 6 -2 115 -228 243 -502z"/>
<path d="M3130 2830 l0 -1051 453 4 c479 4 494 6 649 58 152 50 291 136 405
248 292 287 387 719 244 1111 -104 283 -323 497 -621 605 -181 65 -204 67
-687 72 l-443 5 0 -1052z m771 905 c367 -55 641 -315 727 -690 11 -49 16 -116
16 -225 -1 -134 -5 -168 -27 -254 -51 -190 -151 -351 -284 -457 -199 -158
-368 -203 -743 -197 l-185 3 -3 905 c-1 498 0 911 3 918 7 18 371 16 496 -3z"/>
</g>
</svg>
