<svg width="212" height="21" viewBox="0 0 212 21" fill="none" xmlns="http://www.w3.org/2000/svg">
<path d="M15.2169 14.5702L18.0862 20.6461H20.9855L11.2416 0H9.74717L0.899994 20.6461H2.27489L4.90513 14.5702H15.2169ZM14.5892 13.243H5.47303L9.77706 3.30337H9.89661L14.5892 13.243Z" fill="black"/>
<path d="M36.7795 20.6461V11.0899C36.7795 10.736 36.7496 10.2542 36.6899 9.64466C36.6301 9.01545 36.4308 8.4059 36.0921 7.81601C35.7733 7.20646 35.2552 6.68539 34.5378 6.25281C33.8205 5.80056 32.8043 5.57444 31.4892 5.57444C30.9113 5.55478 30.2637 5.67275 29.5464 5.92837C28.829 6.16433 28.1216 6.6264 27.4242 7.31461L26.946 7.78652H26.8265V5.89888H24.2859V20.6461H26.8265V11.5323C26.8265 10.7654 26.936 10.1067 27.1552 9.55618C27.3744 9.00562 27.6733 8.54354 28.0519 8.16994C28.4305 7.79635 28.8589 7.52107 29.3371 7.3441C29.8353 7.16714 30.3434 7.07865 30.8615 7.07865C31.6984 7.07865 32.346 7.24579 32.8043 7.58006C33.2626 7.89466 33.5914 8.26826 33.7906 8.70084C34.0098 9.13343 34.1393 9.56601 34.1792 9.99859C34.219 10.4312 34.2389 10.7458 34.2389 10.9424V20.6461H36.7795Z" fill="black"/>
<path d="M54.1467 20.6461V11.0899C54.1467 10.736 54.1168 10.2542 54.0571 9.64466C53.9973 9.01545 53.798 8.4059 53.4593 7.81601C53.1405 7.20646 52.6224 6.68539 51.905 6.25281C51.1877 5.80056 50.1715 5.57444 48.8564 5.57444C48.2785 5.55478 47.6309 5.67275 46.9136 5.92837C46.1962 6.16433 45.4888 6.6264 44.7914 7.31461L44.3132 7.78652H44.1937V5.89888H41.6531V20.6461H44.1937V11.5323C44.1937 10.7654 44.3032 10.1067 44.5224 9.55618C44.7416 9.00562 45.0405 8.54354 45.4191 8.16994C45.7977 7.79635 46.2261 7.52107 46.7043 7.3441C47.2025 7.16714 47.7106 7.07865 48.2287 7.07865C49.0656 7.07865 49.7132 7.24579 50.1715 7.58006C50.6298 7.89466 50.9586 8.26826 51.1578 8.70084C51.377 9.13343 51.5065 9.56601 51.5464 9.99859C51.5862 10.4312 51.6061 10.7458 51.6061 10.9424V20.6461H54.1467Z" fill="black"/>
<path d="M64.5199 5.57444C65.9745 5.57444 67.1003 5.7809 67.8973 6.19382C68.6944 6.58708 69.2722 7.10815 69.6309 7.75702C70.0095 8.4059 70.2287 9.15309 70.2885 9.99859C70.3482 10.8441 70.3781 11.7093 70.3781 12.5941V20.6461H67.9571V19.2008C67.3793 19.7514 66.642 20.1938 65.7453 20.5281C64.8487 20.8427 63.952 21 63.0553 21C62.1985 21 61.4413 20.8525 60.7837 20.5576C60.1262 20.2626 59.5782 19.8792 59.1398 19.4073C58.7015 18.9354 58.3727 18.4045 58.1535 17.8146C57.9343 17.2247 57.8247 16.625 57.8247 16.0154C57.8247 15.3862 57.9443 14.757 58.1834 14.1278C58.4225 13.4986 58.7812 12.9382 59.2594 12.4466C59.7376 11.9354 60.3254 11.5225 61.0229 11.2079C61.7203 10.8933 62.5173 10.736 63.414 10.736C64.3107 10.736 65.1575 10.9129 65.9546 11.2669C66.7715 11.6011 67.439 12.0829 67.9571 12.7121V11.4438C67.9571 9.83146 67.708 8.63202 67.2099 7.84551C66.7317 7.05899 65.845 6.66573 64.5498 6.66573C63.9918 6.66573 63.5036 6.73455 63.0852 6.87219C62.6668 7.00983 62.2882 7.20646 61.9494 7.46208C61.6306 7.69803 61.3317 8.00281 61.0527 8.3764C60.7738 8.73034 60.4948 9.13343 60.2158 9.58567L58.6616 8.05197C58.9406 7.75702 59.2295 7.46208 59.5284 7.16713C59.8472 6.87219 60.2258 6.60674 60.6642 6.37079C61.1225 6.13483 61.6605 5.94803 62.2782 5.81039C62.8959 5.65309 63.6431 5.57444 64.5199 5.57444ZM67.9571 14.8062C67.8575 14.5702 67.708 14.2949 67.5088 13.9803C67.3294 13.6657 67.0903 13.361 66.7914 13.066C66.4926 12.7711 66.1339 12.5253 65.7154 12.3287C65.297 12.1124 64.7988 12.0042 64.221 12.0042C63.6431 12.0042 63.1151 12.1222 62.6369 12.3581C62.1586 12.5744 61.7502 12.8694 61.4114 13.243C61.0926 13.5969 60.8435 14.0197 60.6642 14.5112C60.4848 15.0028 60.3952 15.514 60.3952 16.0449C60.3952 16.6742 60.5048 17.2247 60.724 17.6966C60.9631 18.1489 61.262 18.5421 61.6206 18.8764C61.9793 19.191 62.3778 19.427 62.8162 19.5843C63.2546 19.7416 63.673 19.8202 64.0715 19.8202C64.4501 19.8202 64.8287 19.7514 65.2073 19.6138C65.6058 19.4761 65.9745 19.2893 66.3132 19.0534C66.6719 18.7978 66.9907 18.5028 67.2697 18.1685C67.5486 17.8343 67.7778 17.4705 67.9571 17.0772V14.8062Z" fill="black"/>
<path d="M87.1055 20.6461V0H93.98C95.6339 0 97.1483 0.26545 98.5232 0.796349C99.8981 1.30758 101.074 2.02528 102.05 2.94944C103.046 3.85393 103.814 4.93539 104.352 6.19382C104.909 7.45225 105.188 8.80899 105.188 10.264C105.188 11.7781 104.9 13.1742 104.322 14.4522C103.764 15.7107 102.987 16.802 101.99 17.7261C101.014 18.6503 99.8682 19.368 98.5531 19.8792C97.2379 20.3904 95.8331 20.6461 94.3387 20.6461H87.1055ZM89.8254 19.3483H93.1132C94.7472 19.3483 96.132 19.0829 97.2678 18.552C98.4235 18.0014 99.37 17.2935 100.107 16.4284C100.845 15.5632 101.383 14.5997 101.721 13.5379C102.06 12.4565 102.229 11.3848 102.229 10.323C102.229 9.14326 102.03 8.01264 101.632 6.93118C101.233 5.83006 100.645 4.86657 99.8682 4.04073C99.111 3.19523 98.1645 2.52669 97.0287 2.03511C95.8929 1.54354 94.5878 1.29775 93.1132 1.29775H89.8254V19.3483Z" fill="black"/>
<path d="M121.736 13.9213V13.302C121.736 11.9845 121.547 10.8441 121.169 9.88062C120.79 8.91713 120.272 8.12079 119.614 7.49157C118.977 6.86236 118.23 6.39045 117.373 6.07584C116.516 5.76124 115.609 5.60393 114.653 5.60393C113.637 5.60393 112.7 5.7809 111.843 6.13483C110.986 6.4691 110.239 6.97051 109.602 7.63904C108.964 8.28792 108.466 9.08427 108.107 10.0281C107.748 10.9522 107.569 12.0042 107.569 13.184C107.569 14.1671 107.718 15.1306 108.017 16.0744C108.336 16.9986 108.804 17.8343 109.422 18.5815C110.06 19.309 110.857 19.8989 111.813 20.3511C112.79 20.7837 113.935 21 115.251 21C116.526 21 117.701 20.7837 118.777 20.3511C119.853 19.8989 120.79 19.2598 121.587 18.434L120.631 17.4902C120.212 17.8441 119.814 18.1685 119.435 18.4635C119.076 18.7584 118.708 19.0042 118.329 19.2008C117.951 19.3975 117.552 19.5548 117.134 19.6728C116.735 19.7711 116.287 19.8202 115.789 19.8202C115.231 19.8202 114.633 19.7416 113.995 19.5843C113.377 19.4073 112.8 19.1025 112.262 18.6699C111.724 18.2374 111.275 17.6376 110.917 16.8708C110.558 16.1039 110.379 15.1208 110.379 13.9213H121.736ZM110.379 12.7416C110.379 11.9551 110.458 11.198 110.618 10.4705C110.797 9.72332 111.056 9.06461 111.395 8.49438C111.754 7.92416 112.202 7.47191 112.74 7.13764C113.278 6.78371 113.916 6.60674 114.653 6.60674C116.068 6.60674 117.163 7.1573 117.941 8.25843C118.738 9.33989 119.136 10.8343 119.136 12.7416H110.379Z" fill="black"/>
<path d="M128.767 0H126.226V20.6461H128.767V0Z" fill="black"/>
<path d="M143.107 0L151.864 20.6461H153.658L162.146 0H160.592L153.628 16.9888H153.508L146.335 0H143.107Z" fill="black"/>
<path d="M170.941 5.57444C172.396 5.57444 173.522 5.7809 174.319 6.19382C175.116 6.58708 175.694 7.10815 176.052 7.75702C176.431 8.4059 176.65 9.15309 176.71 9.99859C176.77 10.8441 176.8 11.7093 176.8 12.5941V20.6461H174.379V19.2008C173.801 19.7514 173.064 20.1938 172.167 20.5281C171.27 20.8427 170.374 21 169.477 21C168.62 21 167.863 20.8525 167.205 20.5576C166.548 20.2626 166 19.8792 165.561 19.4073C165.123 18.9354 164.794 18.4045 164.575 17.8146C164.356 17.2247 164.246 16.625 164.246 16.0154C164.246 15.3862 164.366 14.757 164.605 14.1278C164.844 13.4986 165.203 12.9382 165.681 12.4466C166.159 11.9354 166.747 11.5225 167.444 11.2079C168.142 10.8933 168.939 10.736 169.836 10.736C170.732 10.736 171.579 10.9129 172.376 11.2669C173.193 11.6011 173.861 12.0829 174.379 12.7121V11.4438C174.379 9.83146 174.13 8.63202 173.631 7.84551C173.153 7.05899 172.267 6.66573 170.971 6.66573C170.413 6.66573 169.925 6.73455 169.507 6.87219C169.088 7.00983 168.71 7.20646 168.371 7.46208C168.052 7.69803 167.753 8.00281 167.474 8.3764C167.195 8.73034 166.916 9.13343 166.637 9.58567L165.083 8.05197C165.362 7.75702 165.651 7.46208 165.95 7.16713C166.269 6.87219 166.647 6.60674 167.086 6.37079C167.544 6.13483 168.082 5.94803 168.7 5.81039C169.317 5.65309 170.065 5.57444 170.941 5.57444ZM174.379 14.8062C174.279 14.5702 174.13 14.2949 173.93 13.9803C173.751 13.6657 173.512 13.361 173.213 13.066C172.914 12.7711 172.555 12.5253 172.137 12.3287C171.719 12.1124 171.22 12.0042 170.643 12.0042C170.065 12.0042 169.537 12.1222 169.058 12.3581C168.58 12.5744 168.172 12.8694 167.833 13.243C167.514 13.5969 167.265 14.0197 167.086 14.5112C166.906 15.0028 166.817 15.514 166.817 16.0449C166.817 16.6742 166.926 17.2247 167.146 17.6966C167.385 18.1489 167.684 18.5421 168.042 18.8764C168.401 19.191 168.799 19.427 169.238 19.5843C169.676 19.7416 170.095 19.8202 170.493 19.8202C170.872 19.8202 171.25 19.7514 171.629 19.6138C172.027 19.4761 172.396 19.2893 172.735 19.0534C173.093 18.7978 173.412 18.5028 173.691 18.1685C173.97 17.8343 174.199 17.4705 174.379 17.0772V14.8062Z" fill="black"/>
<path d="M184.721 0H182.181V20.6461H184.721V0Z" fill="black"/>
<path d="M193.245 0H190.704V20.6461H193.245V0Z" fill="black"/>
<path d="M211.9 13.9213V13.302C211.9 11.9845 211.711 10.8441 211.332 9.88062C210.954 8.91713 210.435 8.12079 209.778 7.49157C209.14 6.86236 208.393 6.39045 207.536 6.07584C206.679 5.76124 205.773 5.60393 204.816 5.60393C203.8 5.60393 202.864 5.7809 202.007 6.13483C201.15 6.4691 200.403 6.97051 199.765 7.63904C199.127 8.28792 198.629 9.08427 198.271 10.0281C197.912 10.9522 197.733 12.0042 197.733 13.184C197.733 14.1671 197.882 15.1306 198.181 16.0744C198.5 16.9986 198.968 17.8343 199.586 18.5815C200.223 19.309 201.02 19.8989 201.977 20.3511C202.953 20.7837 204.099 21 205.414 21C206.689 21 207.865 20.7837 208.941 20.3511C210.017 19.8989 210.954 19.2598 211.751 18.434L210.794 17.4902C210.376 17.8441 209.977 18.1685 209.599 18.4635C209.24 18.7584 208.871 19.0042 208.493 19.2008C208.114 19.3975 207.716 19.5548 207.297 19.6728C206.899 19.7711 206.45 19.8202 205.952 19.8202C205.394 19.8202 204.796 19.7416 204.159 19.5843C203.541 19.4073 202.963 19.1025 202.425 18.6699C201.887 18.2374 201.439 17.6376 201.08 16.8708C200.721 16.1039 200.542 15.1208 200.542 13.9213H211.9ZM200.542 12.7416C200.542 11.9551 200.622 11.198 200.781 10.4705C200.961 9.72332 201.22 9.06461 201.558 8.49438C201.917 7.92416 202.365 7.47191 202.903 7.13764C203.441 6.78371 204.079 6.60674 204.816 6.60674C206.231 6.60674 207.327 7.1573 208.104 8.25843C208.901 9.33989 209.3 10.8343 209.3 12.7416H200.542Z" fill="black"/>
</svg>
